<svg width="1159pt" height="1043pt" viewBox="0.00 0.00 1158.88 1043.19" xmlns="http://www.w3.org/2000/svg" xmlns:xlink="http://www.w3.org/1999/xlink">
<g id="graph0" class="graph" transform="scale(1 1) rotate(0) translate(4 1039.19)">
<title>G</title>
<polygon fill="white" stroke="none" points="-4,4 -4,-1039.19 1154.88,-1039.19 1154.88,4 -4,4"/>
<!-- start -->
<g id="node1" class="node">
<title>start</title>
<polygon fill="#ffb428" stroke="black" points="724.33,-1035.19 435.21,-1035.19 435.21,-999.19 724.33,-999.19 724.33,-1035.19"/>
<text text-anchor="middle" x="579.77" y="-1012.99" font-family="Times,serif" font-size="14.00">So you're repairing a bike and ran into an issue...</text>
</g>
<!-- help -->
<g id="node2" class="node">
<title>help</title>
<polygon fill="#fbeab3" stroke="black" points="579.77,-912.19 458.36,-894.19 579.77,-876.19 701.18,-894.19 579.77,-912.19"/>
<text text-anchor="middle" x="579.77" y="-889.99" font-family="Times,serif" font-size="14.00">What do you need?</text>
</g>
<!-- start&#45;&gt;help -->
<g id="edge1" class="edge">
<title>start-&gt;help</title>
<path fill="none" stroke="black" d="M579.77,-998.85C579.77,-979.27 579.77,-947.08 579.77,-923.77"/>
<polygon fill="black" stroke="black" points="583.27,-924.01 579.77,-914.01 576.27,-924.01 583.27,-924.01"/>
</g>
<!-- advice -->
<g id="node3" class="node">
<title>advice</title>
<ellipse fill="#fbeab3" stroke="black" cx="579.77" cy="-755.39" rx="107.58" ry="18"/>
<text text-anchor="middle" x="579.77" y="-751.19" font-family="Times,serif" font-size="14.00">Email mechanics listserv</text>
</g>
<!-- help&#45;&gt;advice -->
<g id="edge2" class="edge">
<title>help-&gt;advice</title>
<path fill="none" stroke="black" d="M579.77,-875.86C579.77,-852.94 579.77,-812.24 579.77,-784.79"/>
<polygon fill="black" stroke="black" points="583.27,-785.09 579.77,-775.09 576.27,-785.09 583.27,-785.09"/>
<text text-anchor="middle" x="618.06" y="-820.59" font-family="Times,serif" font-size="14.00">Some advice!</text>
</g>
<!-- part -->
<g id="node4" class="node">
<title>part</title>
<ellipse fill="#d9ed92" stroke="black" cx="280.77" cy="-755.39" rx="107.58" ry="18"/>
<text text-anchor="middle" x="280.77" y="-751.19" font-family="Times,serif" font-size="14.00">Email mechanics listserv</text>
</g>
<!-- help&#45;&gt;part -->
<g id="edge3" class="edge">
<title>help-&gt;part</title>
<path fill="none" stroke="black" d="M551.1,-880.07C499.29,-856.37 389.63,-806.2 327.07,-777.57"/>
<polygon fill="black" stroke="black" points="328.63,-774.44 318.08,-773.46 325.72,-780.8 328.63,-774.44"/>
<text text-anchor="middle" x="468.19" y="-820.59" font-family="Times,serif" font-size="14.00">A part!</text>
</g>
<!-- tool -->
<g id="node5" class="node">
<title>tool</title>
<ellipse fill="#cbf3f0" stroke="black" cx="911.77" cy="-755.39" rx="107.58" ry="18"/>
<text text-anchor="middle" x="911.77" y="-751.19" font-family="Times,serif" font-size="14.00">Email mechanics listserv</text>
</g>
<!-- help&#45;&gt;tool -->
<g id="edge4" class="edge">
<title>help-&gt;tool</title>
<path fill="none" stroke="black" d="M611.01,-880.32C668.81,-856.5 792.9,-805.37 862.26,-776.79"/>
<polygon fill="black" stroke="black" points="863.18,-780.2 871.1,-773.15 860.52,-773.72 863.18,-780.2"/>
<text text-anchor="middle" x="785.68" y="-820.59" font-family="Times,serif" font-size="14.00">A tool!</text>
</g>
<!-- advice_question -->
<g id="node6" class="node">
<title>advice_question</title>
<polygon fill="#fbeab3" stroke="black" points="579.77,-609.99 401.07,-591.99 579.77,-573.99 758.47,-591.99 579.77,-609.99"/>
<text text-anchor="middle" x="579.77" y="-587.79" font-family="Times,serif" font-size="14.00">Did they solve your problem?</text>
</g>
<!-- advice&#45;&gt;advice_question -->
<g id="edge5" class="edge">
<title>advice-&gt;advice_question</title>
<path fill="none" stroke="black" d="M579.77,-737.12C579.77,-709.45 579.77,-654.91 579.77,-621.43"/>
<polygon fill="black" stroke="black" points="583.27,-621.65 579.77,-611.65 576.27,-621.65 583.27,-621.65"/>
</g>
<!-- part_question -->
<g id="node7" class="node">
<title>part_question</title>
<polygon fill="#d9ed92" stroke="black" points="179.77,-650.39 8.68,-591.99 179.77,-533.59 350.87,-591.99 179.77,-650.39"/>
<text text-anchor="middle" x="179.77" y="-604.59" font-family="Times,serif" font-size="14.00">Did you find the</text>
<text text-anchor="middle" x="179.77" y="-587.79" font-family="Times,serif" font-size="14.00">part from another mechanic</text>
<text text-anchor="middle" x="179.77" y="-570.99" font-family="Times,serif" font-size="14.00">or the shop space?</text>
</g>
<!-- part&#45;&gt;part_question -->
<g id="edge6" class="edge">
<title>part-&gt;part_question</title>
<path fill="none" stroke="black" d="M269.96,-737.12C257.06,-716.5 234.82,-680.95 215.65,-650.32"/>
<polygon fill="black" stroke="black" points="218.62,-648.48 210.35,-641.86 212.69,-652.19 218.62,-648.48"/>
</g>
<!-- tool_question -->
<g id="node8" class="node">
<title>tool_question</title>
<polygon fill="#cbf3f0" stroke="black" points="979.77,-650.39 808.66,-591.99 979.77,-533.59 1150.88,-591.99 979.77,-650.39"/>
<text text-anchor="middle" x="979.77" y="-604.59" font-family="Times,serif" font-size="14.00">Did you find the</text>
<text text-anchor="middle" x="979.77" y="-587.79" font-family="Times,serif" font-size="14.00">tool from another mechanic</text>
<text text-anchor="middle" x="979.77" y="-570.99" font-family="Times,serif" font-size="14.00">or the shop space?</text>
</g>
<!-- tool&#45;&gt;tool_question -->
<g id="edge7" class="edge">
<title>tool-&gt;tool_question</title>
<path fill="none" stroke="black" d="M919.05,-737.12C927.42,-717.26 941.62,-683.55 954.18,-653.73"/>
<polygon fill="black" stroke="black" points="957.3,-655.34 957.96,-644.77 950.85,-652.62 957.3,-655.34"/>
</g>
<!-- done -->
<g id="node11" class="node">
<title>done</title>
<polygon fill="#ffb428" stroke="black" points="441.85,-38.8 221.69,-38.8 221.69,-2.8 441.85,-2.8 441.85,-38.8"/>
<text text-anchor="middle" x="331.77" y="-16.6" font-family="Times,serif" font-size="14.00">Congrats, you should be good to go!</text>
</g>
<!-- advice_question&#45;&gt;done -->
<g id="edge8" class="edge">
<title>advice_question-&gt;done</title>
<path fill="none" stroke="black" d="M585.26,-574.43C605.39,-510.44 669.04,-275.56 571.77,-128.6 542.23,-83.96 489.32,-57.81 440.69,-42.57"/>
<polygon fill="black" stroke="black" points="441.78,-39.24 431.19,-39.73 439.77,-45.95 441.78,-39.24"/>
<text text-anchor="middle" x="629.93" y="-258.39" font-family="Times,serif" font-size="14.00">yes</text>
</g>
<!-- scrap -->
<g id="node12" class="node">
<title>scrap</title>
<polygon fill="#ffb428" stroke="black" points="850.51,-41.6 581.04,-41.6 581.04,0 850.51,0 850.51,-41.6"/>
<text text-anchor="middle" x="715.77" y="-25" font-family="Times,serif" font-size="14.00">Sadly, the bike is beyond our repair </text>
<text text-anchor="middle" x="715.77" y="-8.2" font-family="Times,serif" font-size="14.00">capabilities and should be scrapped for parts!</text>
</g>
<!-- advice_question&#45;&gt;scrap -->
<g id="edge11" class="edge">
<title>advice_question-&gt;scrap</title>
<path fill="none" stroke="black" d="M592.02,-574.92C605.9,-555.86 628.08,-522.64 639.77,-490.59 697.29,-332.88 711.39,-129.49 714.75,-52.85"/>
<polygon fill="black" stroke="black" points="718.24,-53.31 715.14,-43.18 711.24,-53.03 718.24,-53.31"/>
<text text-anchor="middle" x="702.07" y="-258.39" font-family="Times,serif" font-size="14.00">no</text>
</g>
<!-- consult -->
<g id="node9" class="node">
<title>consult</title>
<polygon fill="#d9ed92" stroke="black" points="278.77,-430.79 71.89,-372.39 278.77,-313.99 485.65,-372.39 278.77,-430.79"/>
<text text-anchor="middle" x="278.77" y="-384.99" font-family="Times,serif" font-size="14.00">Consult Adopt-A-Bike</text>
<text text-anchor="middle" x="278.77" y="-368.19" font-family="Times,serif" font-size="14.00">coordinator. Does the oracle think</text>
<text text-anchor="middle" x="278.77" y="-351.39" font-family="Times,serif" font-size="14.00">the bike is worth repairing?</text>
</g>
<!-- part_question&#45;&gt;consult -->
<g id="edge13" class="edge">
<title>part_question-&gt;consult</title>
<path fill="none" stroke="black" d="M202.48,-541.07C216.87,-509.46 235.57,-468.36 250.85,-434.76"/>
<polygon fill="black" stroke="black" points="253.9,-436.52 254.85,-425.97 247.52,-433.62 253.9,-436.52"/>
<text text-anchor="middle" x="239.24" y="-477.99" font-family="Times,serif" font-size="14.00">no</text>
</g>
<!-- part_question&#45;&gt;done -->
<g id="edge9" class="edge">
<title>part_question-&gt;done</title>
<path fill="none" stroke="black" d="M131.51,-549.84C100.77,-520.29 63.65,-477.54 46.77,-430.79 1.17,-304.46 -29.74,-238.98 46.77,-128.6 83.68,-75.35 150.62,-48.61 210.35,-35.2"/>
<polygon fill="black" stroke="black" points="210.88,-38.67 219.93,-33.16 209.42,-31.82 210.88,-38.67"/>
<text text-anchor="middle" x="10" y="-258.39" font-family="Times,serif" font-size="14.00">yes</text>
</g>
<!-- tool_question&#45;&gt;done -->
<g id="edge10" class="edge">
<title>tool_question-&gt;done</title>
<path fill="none" stroke="black" d="M957.61,-540.84C906.82,-433.05 770.48,-181.25 566.77,-84.6 526.93,-65.7 480.49,-51.77 439.46,-41.9"/>
<polygon fill="black" stroke="black" points="440.33,-38.5 429.8,-39.63 438.73,-45.32 440.33,-38.5"/>
<text text-anchor="middle" x="798.38" y="-258.39" font-family="Times,serif" font-size="14.00">yes</text>
</g>
<!-- tool_question&#45;&gt;scrap -->
<g id="edge12" class="edge">
<title>tool_question-&gt;scrap</title>
<path fill="none" stroke="black" d="M975.13,-534.8C965.23,-442.86 935.43,-257.65 849.77,-128.6 827.45,-94.97 791.16,-66.99 761.97,-48.12"/>
<polygon fill="black" stroke="black" points="763.98,-45.25 753.65,-42.88 760.25,-51.17 763.98,-45.25"/>
<text text-anchor="middle" x="924.4" y="-258.39" font-family="Times,serif" font-size="14.00">no</text>
</g>
<!-- purchase -->
<g id="node10" class="node">
<title>purchase</title>
<ellipse fill="#d9ed92" stroke="black" cx="241.77" cy="-169.9" rx="170.21" ry="41.3"/>
<text text-anchor="middle" x="241.77" y="-182.5" font-family="Times,serif" font-size="14.00">If approved, purchase part and</text>
<text text-anchor="middle" x="241.77" y="-165.7" font-family="Times,serif" font-size="14.00">submit expense form for reimbursement</text>
<text text-anchor="middle" x="241.77" y="-148.9" font-family="Times,serif" font-size="14.00">or an in-kind donation.</text>
</g>
<!-- consult&#45;&gt;purchase -->
<g id="edge15" class="edge">
<title>consult-&gt;purchase</title>
<path fill="none" stroke="black" d="M268.61,-316.34C263.21,-287.07 256.61,-251.3 251.31,-222.56"/>
<polygon fill="black" stroke="black" points="254.8,-222.2 249.54,-213 247.92,-223.47 254.8,-222.2"/>
<text text-anchor="middle" x="268.49" y="-258.39" font-family="Times,serif" font-size="14.00">yes</text>
</g>
<!-- consult&#45;&gt;scrap -->
<g id="edge14" class="edge">
<title>consult-&gt;scrap</title>
<path fill="none" stroke="black" d="M331.92,-328.87C423.07,-255.96 606.66,-109.09 682.17,-48.68"/>
<polygon fill="black" stroke="black" points="684.02,-51.68 689.65,-42.7 679.65,-46.21 684.02,-51.68"/>
<text text-anchor="middle" x="586.21" y="-165.7" font-family="Times,serif" font-size="14.00">no</text>
</g>
<!-- purchase&#45;&gt;done -->
<g id="edge16" class="edge">
<title>purchase-&gt;done</title>
<path fill="none" stroke="black" d="M266.36,-128.7C281.98,-103.18 301.76,-70.86 315.45,-48.47"/>
<polygon fill="black" stroke="black" points="318.26,-50.59 320.49,-40.23 312.29,-46.94 318.26,-50.59"/>
</g>
</g>
</svg>