<?xml version="1.0" encoding="UTF-8"?><svg id="Layer_1" xmlns="http://www.w3.org/2000/svg" viewBox="0 0 1592.7 1571.71"><defs><style>.cls-1{fill:#fff;}</style></defs><path id="outer_ring" d="M970.37,24.73C890.23,7.27,799-1.59,717,.23,419.52,6.85,192.56,147.53,77.19,423.26c-95.8,228.97-112.31,518.28,7.09,741.53,126.2,235.95,389.9,366.67,647.87,400.69,431.71,56.92,776.8-284.54,849.7-689.18C1654.3,474.17,1354.09,108.31,970.37,24.73ZM1572.87,820.39c-38.27,348.12-304.65,687.33-665.55,729.81-187.21,22.03-418.37-43.68-575.18-145.72-170.01-110.61-269.71-264.76-305.15-464.95-32.17-181.75,13.03-421.72,101.5-583.29C252.84,129.18,461.8,22.96,718.02,17.57c155.78-3.27,317.6,26.45,455.15,100.15,250.01,133.95,431.68,411.71,399.7,702.67Z"/><path id="inner_ring" class="cls-1" d="M1173.17,117.72C1035.62,44.02,873.8,14.3,718.02,17.57c-256.22,5.39-465.18,111.61-589.53,338.67C40.02,517.81-5.18,757.78,26.99,939.53c35.44,200.19,135.14,354.34,305.15,464.95,156.81,102.04,387.97,167.75,575.18,145.72,360.9-42.48,627.28-381.69,665.55-729.81,31.98-290.96-149.69-568.72-399.7-702.67ZM1550.43,825.49c-44.01,383.16-344.62,729.24-752.17,708.56-259.58-13.18-530.4-123.85-665.69-355.34C7.33,964.4,10.73,665.6,103.71,439.58,213.43,172.88,443.85,47.89,726.18,38.99l70.12-.34c262.54,2.23,512.64,133.68,653.7,355.09,84.42,132.51,118.49,274.51,100.43,431.75Z"/><path id="circle" d="M1550.43,825.49c-44.01,383.16-344.62,729.24-752.17,708.56-259.58-13.18-530.4-123.85-665.69-355.34C7.33,964.4,10.73,665.6,103.71,439.58,213.43,172.88,443.85,47.89,726.18,38.99l70.12-.34c262.54,2.23,512.64,133.68,653.7,355.09,84.42,132.51,118.49,274.51,100.43,431.75Z"/><path class="cls-1" d="M597.33,638.12c-10.87,0-18.27,1-22.2,3-3.93,2.01-7.03,4.8-9.27,8.4-2.25,3.6-3.37,15.21-3.37,34.8,0,12,.56,20.61,1.69,25.8,1.12,5.2,3.84,8.61,8.15,10.2,4.3,1.6,9.27,2.4,14.89,2.4l38.78-1.2c11.61,0,19.67,1.11,24.17,3.3,4.5,2.2,7.11,5.8,7.87,10.8.75,5.01,1.12,11.1,1.12,18.3v5.4c0,17.61-.84,29.4-2.53,35.4-1.69,6-5.44,9.81-11.24,11.4-5.81,1.6-13.96,2.4-24.45,2.4l-39.34-1.2c-8.99,0-14.43,1.9-16.3,5.7-1.88,3.81-2.81,13.5-2.81,29.1v91.2c0,11.61-.84,20.8-2.53,27.6-1.69,6.81-5.25,11.91-10.68,15.3-5.44,3.4-12.28,5.1-20.51,5.1h-28.1c-8.25,0-15.09-1.7-20.52-5.1-5.44-3.39-8.99-8.49-10.68-15.3-1.69-6.8-2.53-15.99-2.53-27.6v-330c0-18,2.81-30.5,8.43-37.5,5.62-6.99,14.05-10.5,25.29-10.5h139.39c7.49,0,13.77,1.6,18.83,4.8,5.06,3.21,7.59,7.6,7.59,13.2v51c0,4.41-1.12,8.01-3.37,10.8-2.25,2.8-9.37,4.2-21.36,4.2l-44.4-1.2Z"/><path class="cls-1" d="M803.61,603.32v330c0,11.61-.84,20.8-2.53,27.6-1.69,6.81-5.25,11.91-10.68,15.3-5.44,3.4-12.28,5.1-20.51,5.1h-28.1c-8.25,0-15.09-1.7-20.52-5.1-5.44-3.39-8.99-8.49-10.68-15.3-1.69-6.8-2.53-15.99-2.53-27.6v-330c0-11.6.84-20.79,2.53-27.6,1.69-6.8,5.24-11.9,10.68-15.3,5.43-3.39,12.27-5.1,20.52-5.1h28.1c8.24,0,15.08,1.71,20.51,5.1,5.43,3.4,8.99,8.5,10.68,15.3,1.69,6.81,2.53,16,2.53,27.6Z"/><path class="cls-1" d="M982.9,694.52c.37,1.2,1.31,2.01,2.81,2.4.75,0,5.43-16.4,14.05-49.2,8.62-32.79,14.98-55.59,19.11-68.4l1.12-3c2.99-9.99,6.46-15.8,10.4-17.4,3.93-1.59,8.9-2.6,14.89-3,5.99-.39,15.36-.6,28.1-.6h7.31c14.61,0,23.97.81,28.1,2.4,4.12,1.6,6.55,4.2,7.31,7.8.75,3.6,1.12,6.21,1.12,7.8,0,7.2-10.78,38.2-32.32,93-21.55,54.81-32.32,84.6-32.32,89.4s8.62,29.8,25.86,75c17.23,45.21,28.38,75.21,33.44,90,5.06,14.8,8.33,25.11,9.84,30.9,1.49,5.8,2.25,9.7,2.25,11.7,0,13.2-14.61,19.8-43.84,19.8l-28.1-1.2c-15.37,0-24.45-1.5-27.26-4.5s-5.34-8-7.59-15c-2.25-6.99-3.75-11.7-4.5-14.1l-30.35-115.2-2.81-2.4-2.81,2.4-25.29,115.2c-2.63,8.4-5.44,15.7-8.43,21.9-3,6.21-8.06,9.7-15.18,10.5-7.12.8-15.55,1.2-25.29,1.2h-16.86c-25.49,0-38.22-6.2-38.22-18.6,0-6,10.58-40.89,31.76-104.7,21.17-63.8,31.76-98.1,31.76-102.9s-9.65-34.59-28.95-89.4c-19.3-54.8-28.95-85.8-28.95-93,0-5.6,2.05-10.1,6.18-13.5,4.12-3.39,13.86-5.1,29.23-5.1l44.4.6c3,0,6.09.7,9.27,2.1,3.18,1.41,6.65,6.51,10.4,15.3l1.12,2.4,1.12,2.4.56,1.8c2.25,8.4,5.15,19.9,8.71,34.5,3.56,14.61,9.84,41.5,18.83,80.7Z"/></svg>