<?xml version="1.0" encoding="UTF-8"?><svg id="Layer_1" xmlns="http://www.w3.org/2000/svg" viewBox="0 0 1581.4 1573.78"><defs><style>.cls-1{fill:#fff;}</style></defs><path id="black_ring" d="M1574.96,625.77c-14.31-112.09-46.09-215.42-111.3-307.83C1322.95,118.54,1088.04,27.7,850.97,4.33,565.42-23.82,303.12,85.53,148.7,329.47,73.75,447.86,20,598.58,4.34,737.6c-24.2,214.84,54.06,411.87,201.1,565.49,134.41,140.42,329.49,236.14,521.93,263.98,363.99,52.64,711.65-211.19,812.88-552.34,19.52-65.79,31.48-140.47,37.73-207.82,5.45-58.79,4.32-123.74-3.02-181.14ZM1537.25,959.39c-83.95,372.26-451.06,656.29-838.91,585.39C307.52,1473.33-32.79,1142.92,24.48,722.52,62.79,441.29,224.06,160.76,502.06,61.94,663.8,4.45,823.26,6.99,989.35,44.07c192.89,43.05,366.01,136.17,474.34,305.04,112.51,175.39,118.51,410.92,73.56,610.28Z"/><path id="white_ring" class="cls-1" d="M1463.69,349.11c-108.33-168.87-281.45-261.99-474.34-305.04C823.26,6.99,663.8,4.45,502.06,61.94,224.06,160.76,62.79,441.29,24.48,722.52c-57.27,420.4,283.04,750.81,673.86,822.26,387.85,70.9,754.96-213.13,838.91-585.39,44.95-199.36,38.95-434.89-73.56-610.28ZM1531.53,900.34c-56.89,377.21-407.15,684.36-798.15,629.52C344.63,1475.33-1.46,1163.63,40.45,747.55c20.71-205.71,109.8-419.74,269.19-555C440.01,81.9,615.37,30.44,785.52,35.57c234.09,7.05,471.63,78.47,621.76,266.29,133.26,166.73,155.41,391.92,124.25,598.48Z"/><path id="circle" d="M1531.53,900.34c-56.89,377.21-407.15,684.36-798.15,629.52C344.63,1475.33-1.46,1163.63,40.45,747.55c20.71-205.71,109.8-419.74,269.19-555C440.01,81.9,615.37,30.44,785.52,35.57c234.09,7.05,471.63,78.47,621.76,266.29,133.26,166.73,155.41,391.92,124.25,598.48Z"/><path class="cls-1" d="M481.22,863.65v-53.4c0-6.39-1.32-11.19-3.93-14.4-2.63-3.2-8.25-4.8-16.86-4.8-6.38,0-11.43-1.5-15.18-4.5-3.75-3-5.62-10.1-5.62-21.3v-6c0-20,.65-33,1.97-39,1.31-6,4.12-9.6,8.43-10.8,4.3-1.2,9.84-1.8,16.58-1.8h80.37c5.24,0,10.58,1.11,16.02,3.3,5.43,2.2,8.15,9.1,8.15,20.7v187.2c0,20.01-6.28,34.8-18.83,44.4-12.56,9.6-35.13,14.4-67.73,14.4-30.73,0-57.8-5-81.22-15-23.42-9.99-42.72-24.09-57.89-42.3-15.18-18.2-26.89-40.59-35.13-67.2-8.25-26.6-12.37-58.5-12.37-95.7,0-49.59,8.05-90,24.17-121.2,16.11-31.2,37.1-54.09,62.95-68.7,25.85-14.6,54.33-21.9,85.43-21.9,29.23,0,50.21,1.9,62.95,5.7,12.73,3.81,19.11,10.3,19.11,19.5v47.4c0,9.6-5.44,14.4-16.3,14.4-4.87,0-13.96-1.29-27.26-3.9-13.3-2.6-24.26-3.9-32.88-3.9-16.12,0-30.26,5.7-42.44,17.1-12.18,11.4-21.45,28-27.82,49.8-6.38,21.81-9.55,43.11-9.55,63.9,0,29.2,2.71,54.1,8.15,74.7,5.43,20.61,13.11,35.8,23.04,45.6,9.92,9.81,21.45,14.7,34.57,14.7s19.11-9,19.11-27Z"/><path class="cls-1" d="M713.34,596.65v330c0,11.61-.84,20.8-2.53,27.6-1.69,6.81-5.25,11.91-10.68,15.3-5.44,3.4-12.28,5.1-20.51,5.1h-28.1c-8.25,0-15.09-1.7-20.52-5.1-5.44-3.39-8.99-8.49-10.68-15.3-1.69-6.8-2.53-15.99-2.53-27.6v-330c0-11.6.84-20.79,2.53-27.6,1.69-6.8,5.24-11.9,10.68-15.3,5.43-3.39,12.27-5.1,20.52-5.1h28.1c8.24,0,15.08,1.71,20.51,5.1,5.43,3.4,8.99,8.5,10.68,15.3,1.69,6.81,2.53,16,2.53,27.6Z"/><path class="cls-1" d="M913.43,744.25c.37-3.99,1.21-11.6,2.53-22.8,1.31-11.19,3.93-35,7.87-71.4,3.93-36.39,7.21-60.3,9.84-71.7,2.62-11.4,5.9-19.29,9.84-23.7,3.93-4.4,11.33-6.6,22.2-6.6h21.92c13.49,0,23.23,1.8,29.23,5.4,5.99,3.6,8.99,10.8,8.99,21.6,0,3.21-.75,10-2.25,20.4-1.5,10.41-8.91,52-22.2,124.8-13.3,72.81-25.77,141.6-37.38,206.4-6,32.01-19.11,48-39.34,48h-70.26c-20.61,0-33.54-15.99-38.78-48-6-37.59-12.37-76.29-19.11-116.1-6.74-39.8-14.99-87.5-24.73-143.1-9.75-55.59-14.61-86.4-14.61-92.4,0-8.79,2.25-15.6,6.74-20.4s15.92-7.2,34.29-7.2h24.17c9.74,0,17.14,1.9,22.2,5.7,5.06,3.81,9.27,12.3,12.65,25.5,3.37,13.2,6.93,38.01,10.68,74.4.75,7.2,1.97,19.2,3.65,36,1.69,16.8,4.5,46.8,8.43,90s6.75,68.61,8.43,76.2c1.69,7.6,3.09,11.91,4.22,12.9,1.12,1,1.87,1.5,2.25,1.5,1.87,0,3.65-4.59,5.34-13.8,1.69-9.2,3.93-27.09,6.74-53.7,2.81-26.6,4.96-45.9,6.46-57.9Z"/><path class="cls-1" d="M1165.22,822.85v42c.37,6.4,3.09,11.31,8.15,14.7,5.06,3.4,10.21,5.1,15.46,5.1l54.52-1.2c11.24,0,19.2,1.9,23.89,5.7,4.68,3.81,7.03,10.3,7.03,19.5v42c0,6.81-1.22,12.51-3.65,17.1-2.44,4.6-8.71,6.9-18.83,6.9h-148.38c-22.48,0-33.72-15.99-33.72-48v-330c0-11.6.84-20.79,2.53-27.6,1.69-6.8,5.24-11.9,10.68-15.3,5.43-3.39,12.27-5.1,20.52-5.1h145.01c7.49,0,13.77,1.6,18.83,4.8,5.06,3.21,7.59,7.6,7.59,13.2v51c0,4.8-1.6,8.5-4.78,11.1-3.19,2.61-10.03,3.9-20.52,3.9l-53.39-1.2c-7.12,0-13.31.9-18.55,2.7-5.25,1.8-8.62,4.8-10.12,9-1.5,4.2-2.25,10.71-2.25,19.5,0,20.8,1.21,33.81,3.65,39,2.43,5.2,6.46,8.2,12.08,9,5.62.81,9.74,1.2,12.37,1.2l53.4-1.2c6.37,0,11.42,2.4,15.17,7.2,3.74,4.8,5.62,11.61,5.62,20.4v38.4c0,6-1.6,10.71-4.78,14.1-3.19,3.4-10.21,5.1-21.08,5.1l-58.45-1.2c-8.25,0-13.3,1.9-15.18,5.7-1.88,3.81-2.81,11.31-2.81,22.5Z"/></svg>