<?xml version="1.0" encoding="UTF-8"?>
<svg id="Layer_1" xmlns="http://www.w3.org/2000/svg" version="1.1" viewBox="0 0 1841.17 1483.85">
  <!-- Generator: Adobe Illustrator 30.5.1, SVG Export Plug-In . SVG Version: 2.1.4 Build 3)  -->
  <defs>
    <style>
      .st0 {
        fill: #f7f573;
      }

      .st1 {
        font-family: HWTArtzW00-Regular, HWTArtzW00-Regular;
        font-size: 739.34px;
        letter-spacing: .02em;
      }
    </style>
  </defs>
  <path id="background" class="st0" d="M1833.89,1047.64c-8.98,9.17-52.4,11.52-67.27,12.71-60.44,4.89-122.33,1.71-181.75,14.36-129.88,247.96-367.71,420.64-656.96,408.54-231.72-9.69-486.14-106.59-626.7-296.77-26.66-36.08-46.68-75.56-68.58-114.52-19.15-2.59-38.86-5.1-58.11-6.4-44.42-2.97-92.69-.12-136.74-5.17-25.58-2.93-35.32-21.49-37.37-45.16-2.09-24.14,3.05-73.37,32.37-78.43,25.89-4.46,63.11.05,89.83,2.76,22.87,2.32,45.46,9.47,68.7,7.38-3.25-13.54-7.05-26.97-9.5-40.75-33.25-186.75-1.35-424.79,94.22-589.94C427.79,53.99,713.86-23.97,1002.84,6.08c371.34,38.62,696.68,352.22,672.19,738.5-4.27,67.08-19.74,134.15-38.56,198.33,2.56,4.68,7.05,4.32,11.47,4.28,29.72-.32,64.83-9.34,95.38-10.64,46.09-1.97,91.27-3.61,96.85,52.97,1.3,13.25,2.87,48.78-6.28,58.12Z"/>
  <path id="handlebar" d="M1486.08,1054.62c-1.7,2.41-45.27,20.35-53.63,25.04-89.87,50.38-148.63,142.99-252.28,175.89-58.36,18.52-105.52,13.77-164.29,13.52-110.13-.45-292.78,18.34-389.38-26.04-81.5-37.44-134.69-118.5-211.52-162.47-14.07-8.06-40.71-17.03-51.79-25.61-4.01-3.11-3.73-3.85-4.28-8.61-.9-7.75-.38-51.34,6.77-52.85,43.43,14.65,82.31,33.61,118.46,61.8,54.07,42.17,98.09,100.06,160.8,130.66,89.44,43.64,223.6,23.21,321.91,23.83,66.25.42,127.22,12.05,193.75-4.71,130.27-32.81,188.66-183.77,320.81-211.64,3.76,13.57,12.83,49.69,4.68,61.19Z"/>
  <path id="left_grip" d="M350.93,978.67c-1.99,6.23-7.37,20.75-7.37,26.29v58l-189.63-7.76c-44.95-5.69-91.47-2.72-135.16-15.79-3.05-20.73-3.95-44.12.25-64.79,3.97-19.54,21.66-24.03,39.3-25.17,43.24-2.8,105,8.92,149.77,12.96,46.24,4.17,92.63,7.3,138.93,10.72l3.9,5.54Z"/>
  <path id="right_grip" d="M1827.02,1036.91l-324.87,26.06c-.87-15.55,1.25-32.24-.03-47.65-.63-7.48-8.3-35.62-7.5-38.39.81-2.82,3.5-4,6.26-4.19,77.64-2.86,154.83-15.9,232.26-20.6,21.38-1.3,68.03-6.48,83.63,9.2,15.92,15.99,9.26,54.76,10.25,75.58Z"/>
  <path id="stem" d="M962.96,1451.01c-.26,3.36-2.23,19.06-4.18,19.4-18.55-2.73-46.99.44-64.23-2.81-3.42-.64-6.11-1.88-7.8-5.09-8.39-59.44-12.68-120.75-6.46-180.44h72.25c2.92,1.93,9.97,52.82,10.43,60.47,1.84,30.85,2.38,77.94-.01,108.47Z"/>
  <text class="st1" transform="translate(438.21 856.06) scale(.94 1)"><tspan x="0" y="0">RCK</tspan></text>
</svg>