<?xml version="1.0" encoding="UTF-8"?><svg id="Layer_1" xmlns="http://www.w3.org/2000/svg" viewBox="0 0 1591.96 1582.72"><defs><style>.cls-1{fill:#fff;}</style></defs><path id="outer_ring" d="M1512.83,483.58c-77-153.27-182.11-263.65-329.97-350.21C937.03-10.56,656.46-61.46,403.95,99.89c-136.06,86.95-237.56,217.43-313.4,358.21C41.22,549.68,13.29,647.59,3.14,751.29c-30.81,314.48,169.36,573.82,424.98,728.92,395.94,240.22,874.08,31.19,1087-346.61,109.51-194.31,95.86-454.65-2.29-650.02ZM1512.16,1099.44c-191.41,378.76-668.68,602.13-1060.26,375.11-201.97-117.09-383.44-313.05-425.29-549.39-25.23-142.44,2.09-306.21,66.86-434.9C189.34,299.77,338.29,122.19,545.32,49.95c216.04-75.39,439.49-12.93,629.49,98.52,156.23,91.65,264.24,210.49,338.06,376.36,78.61,176.65,87.6,399.87-.71,574.61Z"/><path id="inner_ring" class="cls-1" d="M1512.87,524.83c-73.82-165.87-181.83-284.71-338.06-376.36C984.81,37.02,761.36-25.44,545.32,49.95,338.29,122.19,189.34,299.77,93.47,490.26,28.7,618.95,1.38,782.72,26.61,925.16c41.85,236.34,223.32,432.3,425.29,549.39,391.58,227.02,868.85,3.65,1060.26-375.11,88.31-174.74,79.32-397.96.71-574.61ZM1497.2,1080.4c-170.87,349.39-580.21,576.94-960.1,412.66-215.47-93.18-421.51-281.26-481.53-514.29-36.82-142.95-19.63-307.97,37.9-443.21,53.49-125.75,129-247.54,231.85-339.1C520.86,22.37,757.98,1.79,1000.46,87.2c243.28,85.7,418.47,234.54,512.39,477.94,63.93,165.68,62.8,354.83-15.65,515.26Z"/><path id="circle" d="M1497.2,1080.4c-170.87,349.39-580.21,576.94-960.1,412.66-215.47-93.18-421.51-281.26-481.53-514.29-36.82-142.95-19.63-307.97,37.9-443.21,53.49-125.75,129-247.54,231.85-339.1C520.86,22.37,757.98,1.79,1000.46,87.2c243.28,85.7,418.47,234.54,512.39,477.94,63.93,165.68,62.8,354.83-15.65,515.26Z"/><path class="cls-1" d="M291.1,692.15v278.4c-.75,18.4-3.93,30.3-9.55,35.7-5.62,5.4-13.68,8.1-24.17,8.1h-28.1c-8.25,0-15.09-1.7-20.51-5.1-5.44-3.39-8.99-8.49-10.68-15.3-1.69-6.8-2.53-15.99-2.53-27.6v-274.2c0-5.6-.66-10.1-1.97-13.5-1.32-3.39-5.53-5.1-12.65-5.1l-16.3.6c-7.87,0-14.05-1.2-18.55-3.6-4.5-2.4-6.74-6.8-6.74-13.2v-51c0-5.6,2.53-9.99,7.59-13.2,5.06-3.2,11.33-4.8,18.83-4.8h155.13c7.49,0,13.77,1.6,18.83,4.8,5.06,3.21,7.59,7.6,7.59,13.2v51c0,4.8-1.69,8.8-5.06,12-3.37,3.21-10.12,4.8-20.23,4.8l-15.74-.6c-5.25,0-9.09.81-11.52,2.4-2.44,1.6-3.65,7-3.65,16.2Z"/><path class="cls-1" d="M486.13,862.55v42c.37,6.4,3.09,11.31,8.15,14.7,5.06,3.4,10.2,5.1,15.46,5.1l54.52-1.2c11.24,0,19.2,1.9,23.89,5.7,4.68,3.81,7.03,10.3,7.03,19.5v42c0,6.81-1.22,12.51-3.65,17.1-2.44,4.6-8.71,6.9-18.83,6.9h-148.38c-22.48,0-33.72-15.99-33.72-48v-330c0-11.6.84-20.79,2.53-27.6,1.69-6.8,5.24-11.9,10.68-15.3,5.43-3.39,12.27-5.1,20.52-5.1h145.01c7.49,0,13.77,1.6,18.83,4.8,5.06,3.21,7.59,7.6,7.59,13.2v51c0,4.8-1.6,8.5-4.78,11.1-3.19,2.61-10.03,3.9-20.51,3.9l-53.4-1.2c-7.12,0-13.3.9-18.55,2.7-5.25,1.8-8.62,4.8-10.12,9-1.5,4.2-2.25,10.71-2.25,19.5,0,20.8,1.21,33.81,3.65,39,2.43,5.2,6.46,8.2,12.08,9,5.62.81,9.74,1.2,12.37,1.2l53.4-1.2c6.37,0,11.43,2.4,15.18,7.2,3.74,4.8,5.62,11.61,5.62,20.4v38.4c0,6-1.6,10.71-4.78,14.1-3.19,3.4-10.21,5.1-21.08,5.1l-58.45-1.2c-8.25,0-13.31,1.9-15.18,5.7-1.88,3.81-2.81,11.31-2.81,22.5Z"/><path class="cls-1" d="M860.45,636.35c3.37,21.6,7.21,45.4,11.52,71.4,4.3,26.01,9.08,53.8,14.33,83.4,5.24,29.61,12.08,66.4,20.51,110.4,8.43,44.01,12.65,71.61,12.65,82.8,0,9.6-2.72,17.01-8.15,22.2-5.44,5.2-19.21,7.8-41.31,7.8h-29.79c-6,0-11.06-3-15.17-9-4.13-6-7.12-17-8.99-33-1.88-15.99-3.28-26.49-4.22-31.5-.94-5-2.44-9-4.5-12-2.06-3-4.41-4.5-7.03-4.5h-44.96c-3.37,0-6.28,2.1-8.71,6.3-2.44,4.2-4.69,13.11-6.74,26.7-2.06,13.6-3.85,23.2-5.34,28.8-1.5,5.61-3,10.2-4.5,13.8-1.5,3.6-3.65,6.9-6.46,9.9-2.81,3-6.66,4.5-11.52,4.5h-26.42c-20.23,0-33.07-2.6-38.5-7.8-5.44-5.19-8.15-12.6-8.15-22.2,0-3.2.28-8.19.84-15,.56-6.8,6.83-43.1,18.83-108.9,11.99-65.79,24.54-140.49,37.66-224.1,4.87-32,17.61-48,38.22-48h86.56c20.23,0,33.35,16,39.34,48ZM756.47,815.75l-.56,9c0,3.6.84,6.1,2.53,7.5,1.69,1.41,8.15,2.1,19.39,2.1,9.36,0,15.36-.5,17.99-1.5,2.62-.99,3.93-3.5,3.93-7.5l-.56-9.6c-1.12-9.6-2.91-28.1-5.34-55.5-2.44-27.39-4.87-46.89-7.31-58.5-2.44-11.6-5.34-17.4-8.71-17.4-3,0-5.9,5.61-8.71,16.8-2.81,11.2-5.53,32.5-8.15,63.9-2.63,31.41-4.13,48.3-4.5,50.7Z"/><path class="cls-1" d="M959.37,795.35c0-68.4,14.89-120.5,44.68-156.3,29.79-35.79,72.41-53.7,127.87-53.7,6.74,0,11.99,1.71,15.74,5.1,3.74,3.4,5.62,8.1,5.62,14.1v52.8c0,5.61-1.78,9.51-5.34,11.7-3.57,2.2-8.91,3.3-16.02,3.3l-17.99-1.2c-17.62,0-30.91,11.1-39.91,33.3-8.99,22.2-13.49,52.9-13.49,92.1,0,18.81,1.12,36.6,3.37,53.4s5.43,30.81,9.55,42c4.12,11.2,9.36,20.1,15.74,26.7,6.37,6.6,13.86,9.9,22.48,9.9l20.23-1.2c14.24,0,21.36,9.21,21.36,27.6v40.2c0,14.8-7.12,22.2-21.36,22.2-55.84,0-98.55-18.69-128.15-56.1-29.61-37.4-44.4-92.7-44.4-165.9Z"/><path class="cls-1" d="M1294.91,636.35v75c0,12.81.65,21.21,1.97,25.2,1.31,4,4.4,6.3,9.27,6.9,4.87.6,11.43.9,19.67.9,11.99,0,19.86-.69,23.61-2.1,3.74-1.4,5.9-4.5,6.46-9.3.56-4.8.84-11.4.84-19.8v-76.8c0-11.6.84-20.79,2.53-27.6,1.69-6.8,5.24-11.9,10.68-15.3,5.43-3.39,12.27-5.1,20.51-5.1h28.1c8.24,0,15.08,1.71,20.52,5.1,5.43,3.4,8.99,8.5,10.68,15.3,1.69,6.81,2.53,16,2.53,27.6v330c0,11.61-.84,20.8-2.53,27.6-1.69,6.81-5.25,11.91-10.68,15.3-5.44,3.4-12.28,5.1-20.52,5.1h-28.1c-8.25,0-15.09-1.7-20.51-5.1-5.44-3.39-8.99-8.49-10.68-15.3-1.69-6.8-2.53-15.99-2.53-27.6v-90c0-15.2-.84-25.5-2.53-30.9-1.69-5.4-4.97-8.6-9.84-9.6-4.87-.99-11.06-1.5-18.55-1.5h-6.18c-7.87,0-13.3.6-16.3,1.8-3,1.2-5.16,4-6.46,8.4-1.32,4.41-1.97,11.2-1.97,20.4v101.4c0,11.61-.84,20.8-2.53,27.6-1.69,6.81-5.25,11.91-10.68,15.3-5.44,3.4-12.28,5.1-20.51,5.1h-28.1c-8.25,0-15.09-1.7-20.52-5.1-5.44-3.39-8.99-8.49-10.68-15.3-1.69-6.8-2.53-15.99-2.53-27.6v-330c0-11.6.84-20.79,2.53-27.6,1.69-6.8,5.24-11.9,10.68-15.3,5.43-3.39,12.27-5.1,20.52-5.1h28.1c8.24,0,15.08,1.71,20.51,5.1,5.43,3.4,8.99,8.5,10.68,15.3,1.69,6.81,2.53,16,2.53,27.6Z"/></svg>